<?xml version="1.0" encoding="UTF-8" standalone="no"?>
<!-- Created with Inkscape (http://www.inkscape.org/) -->

<svg
   width="62.465721mm"
   height="61.165131mm"
   viewBox="0 0 78.082152 76.456414"
   version="1.1"
   id="svg1"
   xml:space="preserve"
   sodipodi:docname="pathath1.svg"
   xmlns:inkscape="http://www.inkscape.org/namespaces/inkscape"
   xmlns:sodipodi="http://sodipodi.sourceforge.net/DTD/sodipodi-0.dtd"
   xmlns="http://www.w3.org/2000/svg"
   xmlns:svg="http://www.w3.org/2000/svg"><sodipodi:namedview
     id="namedview1"
     pagecolor="#ffffff"
     bordercolor="#000000"
     borderopacity="0.25"
     inkscape:showpageshadow="2"
     inkscape:pageopacity="0.0"
     inkscape:pagecheckerboard="0"
     inkscape:deskcolor="#d1d1d1"
     inkscape:document-units="mm" /><defs
     id="defs1" /><g
     id="layer1"
     transform="matrix(0.95956192,0,0,0.96853491,-61.639989,-110.68095)"><path
       style="fill:#ff0b7e;fill-opacity:1"
       d="m 84.86467,191.64177 c -0.84655,-0.21454 -1.19063,-0.61914 -1.19063,-1.40008 0,-1.2239 0.57348,-1.44616 3.99626,-1.54883 l 3.12139,-0.0936 0.30843,-1.49387 c 0.16964,-0.82163 0.70474,-3.33598 1.18911,-5.58743 0.48437,-2.25146 0.84551,-4.12873 0.80252,-4.17172 -0.043,-0.043 -0.78057,0.3455 -1.63907,0.86329 -0.85851,0.51779 -2.57296,1.24402 -3.80989,1.61386 -3.6052,1.07793 -3.48358,0.84542 -1.35366,2.58797 2.08208,1.70341 2.37732,2.46708 1.24153,3.21128 -0.57501,0.37676 -0.72089,0.37903 -1.41136,0.022 -0.97572,-0.50457 -3.3185,-2.31637 -4.69422,-3.6303 -0.74257,-0.70921 -1.59878,-1.17751 -2.86972,-1.56957 -3.054,-0.94208 -5.0144,-3.50262 -4.5553,-5.94983 0.0873,-0.46523 0.52149,-1.39361 0.96492,-2.06307 l 0.80623,-1.21718 -0.68198,-1.00366 c -0.65415,-0.96271 -0.74391,-1.00413 -2.20014,-1.01516 -1.71863,-0.013 -2.92853,-0.58385 -3.58193,-1.68998 -0.62949,-1.06564 -0.24076,-1.41365 1.43427,-1.28405 0.78278,0.0606 1.63223,0.20452 1.88766,0.3199 0.43612,0.197 0.43464,0.13951 -0.0245,-0.94355 -0.48421,-1.14232 -0.50379,-1.15478 -2.05192,-1.3066 -1.83155,-0.17961 -2.56445,-0.57612 -3.18098,-1.72095 -0.92082,-1.70985 0.34949,-2.22744 2.63142,-1.07217 0.67951,0.34401 1.23547,0.60374 1.23547,0.57718 0,-0.0265 -0.17932,-0.65209 -0.39847,-1.39007 -0.36798,-1.2391 -0.47429,-1.35601 -1.38907,-1.52751 -1.98234,-0.37164 -3.40751,-1.84724 -3.19998,-3.31323 0.13196,-0.93212 0.78247,-0.94073 2.24614,-0.0297 0.70058,0.43606 1.31228,0.75433 1.35933,0.70728 0.047,-0.047 0.005,-0.69476 -0.094,-1.43935 -0.14835,-1.11836 -0.27176,-1.35381 -0.70958,-1.35381 -0.89751,0 -2.30168,-1.05869 -2.8627,-2.15837 -1.18783,-2.32836 0.55018,-2.83865 2.73326,-0.80251 l 0.72761,0.67864 v -1.34728 c 0,-1.31976 -0.0247,-1.36173 -1.20721,-2.05475 -0.66396,-0.38911 -1.43742,-1.08503 -1.7188,-1.54649 -0.61406,-1.00707 -0.67054,-2.25062 -0.11195,-2.46497 0.5983,-0.22959 1.90357,0.40082 2.63863,1.27441 l 0.64829,0.77045 0.1647,-0.73863 c 0.0906,-0.40625 0.21811,-0.93733 0.2834,-1.18019 0.0752,-0.2796 -0.15219,-0.60318 -0.6199,-0.88222 -1.28205,-0.76489 -1.78919,-1.69996 -1.79326,-3.30643 -0.004,-1.37682 0.0319,-1.45521 0.65776,-1.45521 0.49896,0 0.85647,0.30523 1.45521,1.24241 0.88967,1.39253 1.19063,1.55878 1.19063,0.6577 0,-1.00829 0.75325,-3.23247 1.35289,-3.99479 0.72919,-0.92701 1.65609,-0.84316 1.77198,0.1603 0.0452,0.39129 -0.16318,1.53522 -0.46303,2.54206 -0.29985,1.00684 -0.54518,1.90708 -0.54518,2.00053 0,0.0935 0.40969,0.16992 0.91043,0.16992 1.7391,0 1.5116,1.01256 -0.41357,1.84075 -0.78419,0.33735 -1.40655,0.80234 -1.53773,1.14892 -0.3107,0.82087 -0.20859,0.82825 0.91448,0.0661 0.54669,-0.37099 1.33456,-0.67453 1.75081,-0.67453 0.65106,0 0.75683,0.1027 0.75683,0.73488 0,1.31176 -1.33521,2.77711 -2.94376,3.23067 -0.77635,0.21891 -0.99089,0.42801 -1.12448,1.09598 -0.35176,1.75882 -0.24205,1.93531 0.6491,1.04416 0.86116,-0.86116 1.86079,-1.25534 2.37601,-0.93691 0.19459,0.12026 0.25729,0.58342 0.16854,1.24505 -0.16362,1.21991 -1.19729,2.45839 -2.52583,3.0263 -0.72156,0.30844 -0.85786,0.48731 -0.73121,0.9596 0.0856,0.31927 0.15832,0.87814 0.16156,1.24194 0.006,0.6469 0.0262,0.64001 0.92943,-0.31282 1.06763,-1.12632 1.8468,-1.45193 2.39188,-0.99956 1.07755,0.89429 -0.62801,3.8874 -2.59453,4.55319 -0.11032,0.0374 -0.0489,0.59182 0.13649,1.23215 l 0.33708,1.16424 0.72391,-1.09389 c 0.69771,-1.05431 1.71307,-1.60518 2.29536,-1.24531 0.3651,0.22565 0.36018,2.13086 -0.007,2.87096 -0.15788,0.31786 -0.70242,0.94245 -1.21011,1.38799 l -0.92305,0.81007 0.46535,0.97587 c 0.25595,0.53672 0.53846,0.97586 0.62779,0.97586 0.0893,0 0.30695,-0.39965 0.48358,-0.88812 0.39744,-1.09912 1.21817,-1.87361 1.76364,-1.66429 1.08778,0.41742 0.94758,2.9636 -0.24725,4.49031 l -0.63082,0.80605 0.76848,1.11696 c 0.73859,1.0735 0.8124,1.11171 1.89719,0.98207 3.2188,-0.38465 5.31127,-1.21092 8.13509,-3.21236 l 1.71472,-1.21535 -2.04857,-0.46704 c -2.42142,-0.55204 -3.29541,-0.97039 -4.72452,-2.26151 -2.1164,-1.91204 -3.29034,-5.72786 -2.64682,-8.60338 0.42084,-1.88054 1.57444,-3.67623 3.00118,-4.67168 2.32248,-1.62039 2.14143,-1.33679 1.68114,-2.63327 -0.22572,-0.6358 -0.55072,-2.2099 -0.72222,-3.49799 l -0.31181,-2.34198 -1.13958,0.0496 c -1.64173,0.0714 -1.85476,-0.24922 -1.45412,-2.1889 l 0.32936,-1.5946 -0.8056,-0.67786 c -0.89689,-0.75469 -1.08989,-1.9948 -0.42481,-2.7297 0.33526,-0.37046 0.27272,-0.59432 -0.52322,-1.87291 -1.37116,-2.20263 -1.82343,-3.77619 -1.82424,-6.34696 -8.6e-4,-2.72103 0.20709,-3.59345 0.95148,-3.99184 0.51612,-0.27621 0.82119,-0.0376 3.45769,2.70434 1.70977,1.77815 2.946,2.87226 3.02463,2.67691 0.46547,-1.15631 3.0816,-4.7012 4.56205,-6.18166 4.20005,-4.20004 8.98053,-6.0915 15.50312,-6.13399 8.13863,-0.053 14.54424,3.39712 18.9401,10.20137 0.77464,1.19904 1.45694,2.23961 1.51623,2.31237 0.0593,0.0728 1.38415,-1.2221 2.94415,-2.87746 2.54153,-2.6969 2.89283,-2.97951 3.37969,-2.71895 0.59565,0.31878 0.74001,0.7481 1.01054,3.00542 0.26281,2.19282 -0.43522,5.05469 -1.71631,7.03679 l -1.01819,1.57533 0.50088,0.75975 c 0.27549,0.41786 0.50167,0.83992 0.50263,0.93791 9.6e-4,0.098 -0.41819,0.72831 -0.93144,1.4007 -0.88852,1.16403 -0.91851,1.27147 -0.62676,2.24526 0.57011,1.90284 -0.1369,2.83473 -1.88534,2.48505 -0.7122,-0.14245 -0.72296,-0.12363 -0.90579,1.58354 -0.10176,0.95024 -0.36486,2.36109 -0.58466,3.13521 -0.73046,2.57256 -0.73374,2.48703 0.10881,2.83602 1.12629,0.46653 3.13073,2.61412 3.74863,4.01635 1.49767,3.39874 0.6578,7.31853 -2.14943,10.03163 -1.14605,1.10761 -3.62643,2.29339 -5.27016,2.51946 -1.153,0.15858 -1.27131,0.23122 -0.97156,0.59655 0.47759,0.58207 3.57106,2.55761 4.82298,3.08003 0.77191,0.32212 4.87438,1.21392 5.58427,1.21392 0.0411,0 0.43643,-0.49181 0.87848,-1.09291 l 0.80373,-1.09291 -0.62416,-0.82532 c -1.11713,-1.47717 -1.4483,-3.89066 -0.60799,-4.43091 0.57578,-0.37018 1.32013,0.17398 1.95691,1.43061 l 0.67317,1.32845 0.5167,-1.15409 0.5167,-1.15408 -0.91571,-0.8039 c -0.50364,-0.44215 -1.04488,-1.06396 -1.20276,-1.38182 -0.3676,-0.7401 -0.37253,-2.64531 -0.007,-2.87096 0.57108,-0.35294 1.51627,0.16434 2.25922,1.23643 l 0.76542,1.1045 0.30471,-1.03353 c 0.26095,-0.88511 0.24266,-1.07152 -0.12739,-1.29811 -2.02637,-1.24078 -3.2495,-3.65276 -2.32245,-4.57981 0.40079,-0.40079 0.49647,-0.39836 1.29053,0.0327 0.4717,0.25605 1.12553,0.84645 1.45295,1.312 l 0.59531,0.84645 0.004,-0.79002 c 0.002,-0.43451 0.0686,-1.03188 0.14802,-1.32748 0.11588,-0.43128 -0.0665,-0.63051 -0.92326,-1.00851 -0.58721,-0.25908 -1.29045,-0.79113 -1.56276,-1.18233 -1.88225,-2.70417 -0.52905,-4.36818 1.74459,-2.14528 l 0.85438,0.83532 -0.004,-0.759 c -0.006,-1.3537 -0.28262,-1.91233 -1.02616,-2.07564 -1.85668,-0.40779 -3.47473,-2.30694 -3.0651,-3.59758 0.2373,-0.74768 1.50127,-0.65427 2.49825,0.18464 0.92763,0.78055 1.10607,0.7612 0.78569,-0.0852 -0.14123,-0.37312 -0.58912,-0.68081 -1.25006,-0.85878 -2.01821,-0.54345 -2.55871,-2.13166 -0.72544,-2.13166 0.51389,0 0.93435,-0.061 0.93435,-0.13564 0,-0.0746 -0.23812,-0.99495 -0.52917,-2.04521 -0.67619,-2.44012 -0.67275,-3.02959 0.019,-3.24913 1.08138,-0.34322 2.17977,1.46607 2.57734,4.24542 l 0.18796,1.31403 0.74429,-1.27003 c 0.9233,-1.57549 1.90879,-2.12312 2.46119,-1.36766 0.71012,0.97114 -0.2403,3.50505 -1.63887,4.36942 -0.48646,0.30065 -0.84092,0.68948 -0.78768,0.86407 0.0532,0.17459 0.1698,0.64993 0.25904,1.05631 l 0.16226,0.73888 1.16859,-0.95758 c 1.96554,-1.61062 3.13832,-0.84516 2.08996,1.36411 -0.29176,0.61483 -0.93676,1.27184 -1.7369,1.76923 -1.237,0.76896 -1.2728,0.82732 -1.2728,2.07459 0,1.24484 0.31525,1.69328 0.62426,0.888 0.20685,-0.53902 1.75816,-1.45452 2.46676,-1.45573 0.80167,-0.001 1.00095,0.84998 0.46389,1.98176 -0.485,1.02206 -1.58376,1.92916 -2.69761,2.22705 -0.55671,0.14889 -0.75429,0.41077 -0.92318,1.2236 -0.33925,1.63283 -0.19104,1.8084 0.88066,1.04328 0.52089,-0.37189 1.29479,-0.70136 1.71979,-0.73215 0.69452,-0.0503 0.78121,0.0324 0.85663,0.81727 0.11723,1.22018 -1.51224,2.86803 -3.0847,3.11948 -1.00455,0.16063 -1.12182,0.26416 -1.37835,1.21682 -0.15421,0.57269 -0.34196,1.20174 -0.41723,1.39789 -0.0951,0.24792 0.19785,0.19104 0.96117,-0.18663 0.60392,-0.29879 1.5353,-0.55602 2.06974,-0.57162 1.3578,-0.0396 1.45308,0.78912 0.2426,2.10998 -0.8002,0.87317 -1.0713,0.9932 -2.57178,1.13865 l -1.67729,0.16259 -0.48888,1.15332 c -0.45934,1.08366 -0.46082,1.14151 -0.0245,0.95765 0.25544,-0.10762 1.06442,-0.25233 1.79774,-0.32157 1.61422,-0.15241 2.1302,0.24331 1.62873,1.24916 -0.53061,1.0643 -1.95781,1.71732 -3.66737,1.67802 -1.47966,-0.034 -1.5205,-0.0151 -2.20831,1.02428 l -0.70077,1.05893 0.53781,0.57247 c 0.29579,0.31485 0.72207,1.0135 0.9473,1.55254 1.22963,2.94291 -0.61178,5.94783 -4.353,7.1035 -1.39085,0.42963 -2.20054,0.93731 -4.23333,2.65427 -1.38245,1.16767 -2.89789,2.31438 -3.36765,2.54824 -0.79847,0.39752 -0.88895,0.39368 -1.38906,-0.0589 -0.96118,-0.86985 -0.68152,-1.54508 1.31713,-3.18024 1.01864,-0.83338 1.85208,-1.54931 1.85208,-1.59096 0,-0.0416 -0.90213,-0.27641 -2.00473,-0.52172 -1.1026,-0.2453 -3.03554,-0.96354 -4.29541,-1.59607 -1.25988,-0.63254 -2.30327,-1.12839 -2.31864,-1.10191 -0.0154,0.0265 0.35563,1.8341 0.82445,4.01692 0.46882,2.18281 0.99402,4.65335 1.16712,5.4901 l 0.31473,1.52135 h 2.96508 c 3.36841,0 4.14115,0.29299 4.14115,1.57011 0,1.53151 0.85536,1.46916 -20.74416,1.51209 -10.92816,0.0217 -20.1075,-0.0209 -20.39855,-0.0946 z m 14.29389,-7.96211 c 0.27343,-4.88627 0.38489,-5.32705 1.35027,-5.34017 0.85736,-0.0116 0.96171,0.74379 0.76718,5.5538 l -0.19255,4.7609 h 1.34946 1.34945 v -4.84187 c 0,-4.84041 0.11157,-5.47688 0.96006,-5.47688 0.17878,0 0.51216,0.1871 0.74083,0.41578 0.34706,0.34705 0.41578,1.19979 0.41578,5.15937 v 4.7436 h 1.30971 1.30972 l -0.15952,-4.99642 -0.15951,-4.99642 0.59909,-0.19015 c 1.12647,-0.35753 1.37123,0.28977 1.61361,4.26749 0.12288,2.0166 0.22927,4.17256 0.23641,4.79102 l 0.013,1.12448 h 2.65782 2.65782 l -0.17101,-0.99218 c -0.36552,-2.1207 -1.48484,-6.95057 -2.27467,-9.81521 l -0.82775,-3.00219 -0.82267,0.1736 c -3.75925,0.79329 -9.41609,0.91667 -12.75335,0.27814 -1.13046,-0.21629 -2.08505,-0.36357 -2.12133,-0.32729 -0.29065,0.29065 -2.62347,9.74909 -3.13299,12.70269 l -0.17284,1.00194 2.59351,-0.0759 2.5935,-0.0759 z m -13.57497,-6.2832 c 0.83197,-0.2027 2.3203,-0.77525 3.30742,-1.27236 1.95639,-0.98522 5.10178,-3.23453 5.10178,-3.64835 0,-0.14222 -0.19629,-0.85871 -0.4362,-1.59219 -0.35565,-1.08734 -0.38549,-1.60952 -0.1616,-2.82784 0.15102,-0.82183 0.24837,-1.52372 0.21633,-1.55976 -0.032,-0.036 -1.12017,0.77362 -2.41808,1.79923 -3.42319,2.70502 -6.95039,4.39569 -10.43623,5.00233 -3.38194,0.58856 -3.66034,0.6965 -3.86129,1.49716 -0.30837,1.22864 1.18711,2.58746 3.33874,3.03365 1.13774,0.23593 3.33681,0.0584 5.34913,-0.43187 z m 45.18267,-0.029 c 1.22229,-0.50373 2.12123,-1.37651 2.11623,-2.05466 -0.009,-1.20062 -0.77845,-1.62238 -3.60764,-1.97713 -3.73427,-0.46824 -7.36962,-2.12862 -11.03106,-5.03823 l -1.94976,-1.5494 0.028,2.02341 c 0.02,1.44223 -0.10324,2.27861 -0.42898,2.91191 -0.44628,0.86763 -0.44317,0.90043 0.13229,1.39672 1.88261,1.62362 5.12816,3.53123 7.08409,4.16376 2.57153,0.83162 5.8119,0.88393 7.65681,0.12362 z m -22.48017,-6.73879 c 1.31771,-1.18281 2.4464,-2.10001 2.50819,-2.03822 0.0618,0.0618 -0.0604,0.76166 -0.27164,1.55525 -0.5449,2.04756 -0.52109,2.19457 0.3212,1.98317 2.56217,-0.64307 3.33479,-2.98227 2.04757,-6.19935 l -0.43359,-1.08364 -1.22887,1.08341 c -1.60763,1.41734 -2.7489,1.97996 -4.75381,2.34352 -2.95808,0.5364 -5.72591,-0.32242 -7.92855,-2.46011 -1.29982,-1.2615 -1.37752,-1.21969 -2.07159,1.11453 -0.56487,1.89975 -0.34405,3.08655 0.78424,4.21484 0.67416,0.67416 1.19575,0.93421 2.07184,1.03296 1.03806,0.117 1.53962,-0.0529 4.42254,-1.49805 1.78844,-0.89652 3.37421,-1.58919 3.52395,-1.53928 0.14974,0.0499 -0.45636,0.81262 -1.34689,1.6949 -0.89053,0.88227 -1.61914,1.6812 -1.61914,1.77539 0,0.0942 0.35521,0.17124 0.78935,0.17124 0.61483,0 1.31906,-0.47547 3.1852,-2.15056 z m -1.19643,-5.75784 c 0.58209,-0.26865 1.31905,-0.77205 1.6377,-1.11867 l 0.57937,-0.63022 h -4.34921 c -2.39206,0 -4.34942,0.0832 -4.34968,0.18497 -6.7e-4,0.2641 1.61441,1.46061 2.38869,1.76962 1.04735,0.41799 2.94881,0.32244 4.09313,-0.2057 z m 2.77169,-5.33288 c 4.90383,-1.17553 8.1621,-3.54526 9.88563,-7.18981 1.06346,-2.24876 1.4817,-3.91871 1.56798,-6.26059 l 0.0622,-1.68856 -2.96485,-0.75563 c -5.20672,-1.327 -9.07743,-3.29245 -12.22744,-6.2088 l -1.47647,-1.36695 -1.75375,1.62091 c -3.04711,2.81631 -6.80119,4.69044 -11.86693,5.92425 l -2.97151,0.72374 0.16936,1.89796 c 0.64655,7.24551 4.23383,11.482 11.26347,13.30189 2.7818,0.72018 7.31175,0.72088 10.31231,0.002 z m -6.17355,-4.485 c -0.94436,-0.29332 -1.7456,-1.00142 -2.05815,-1.81892 -0.46776,-1.22348 0.83984,-1.83989 1.75585,-0.82771 0.31407,0.34704 0.8149,0.52916 1.4552,0.52916 0.6403,0 1.14114,-0.18212 1.45521,-0.52916 1.09801,-1.21329 2.50034,-0.16541 1.60576,1.19989 -0.84401,1.28812 -2.68716,1.92093 -4.21387,1.44674 z m -9.26205,-4.93167 c -0.38365,-0.38365 -0.69754,-0.87394 -0.69754,-1.08955 0,-0.21561 -0.36639,-0.8093 -0.81419,-1.31932 -0.97842,-1.11437 -0.73085,-1.65731 0.51955,-1.13938 0.66657,0.2761 0.88941,0.26109 1.39651,-0.0941 1.44394,-1.01138 3.66063,0.17467 3.66063,1.95863 0,0.56951 -0.24556,1.08001 -0.7734,1.60785 -1.02452,1.02452 -2.3132,1.05422 -3.29156,0.0759 z m 17.53835,-0.0759 c -0.52784,-0.52784 -0.7734,-1.03834 -0.7734,-1.60785 0,-0.56952 0.24556,-1.08001 0.7734,-1.60786 0.87186,-0.87185 1.75846,-0.98274 2.9463,-0.36849 0.57518,0.29744 0.91819,0.33255 1.29238,0.13229 0.28016,-0.14993 0.63628,-0.27261 0.79136,-0.27261 0.53283,0 0.28143,1.02036 -0.37948,1.54023 -0.3638,0.28617 -0.66146,0.75482 -0.66146,1.04146 0,0.28663 -0.31389,0.83504 -0.69753,1.21869 -0.97836,0.97836 -2.26705,0.94866 -3.29157,-0.0759 z m -23.12858,9.08904 c 1.07133,-0.50838 1.8293,-1.30641 1.59733,-1.68176 -0.11131,-0.1801 -0.63191,-0.0457 -1.47233,0.38021 -1.8628,0.94395 -3.00427,0.87728 -4.12231,-0.24076 -0.73718,-0.73718 -0.89958,-1.09999 -0.89958,-2.0097 0,-1.31704 0.58334,-2.40859 1.61191,-3.01618 0.46831,-0.27663 0.69074,-0.58607 0.59697,-0.83045 -0.21707,-0.56567 -2.07802,0.52859 -2.75112,1.61769 -0.68647,1.11073 -0.68513,3.13797 0.003,4.26624 1.02554,1.68196 3.5825,2.3944 5.43631,1.51471 z m 35.53134,0.0423 c 2.75678,-1.44021 3.22567,-4.76245 0.95369,-6.75727 -0.87,-0.76387 -1.95901,-1.0823 -1.95901,-0.57282 0,0.12878 0.30334,0.43291 0.67409,0.67583 0.89248,0.58478 1.70494,1.9531 1.70617,2.87347 0.004,2.65729 -3.17998,3.99331 -5.52929,2.32046 -1.06587,-0.75897 -1.59918,-0.45556 -0.77348,0.44002 1.21778,1.32085 3.4628,1.78568 4.92783,1.02031 z m -36.71285,-4.74845 c -0.35328,-0.35327 -0.94568,0.18207 -0.67898,0.61358 0.13726,0.2221 0.28602,0.21724 0.57024,-0.0187 0.26678,-0.2214 0.30008,-0.40359 0.10874,-0.59493 z m 34.96669,0.0417 c -0.24694,-0.24695 -0.3905,-0.2445 -0.64601,0.011 -0.26164,0.26164 -0.24862,0.3779 0.0639,0.57107 0.53058,0.32792 1.01133,-0.15284 0.58208,-0.58208 z m -0.58208,-13.65931 c 0,-0.62354 -1.36234,-1.40479 -2.87427,-1.64828 -1.81769,-0.29273 -5.56892,-1.48937 -8.33208,-2.65792 -2.2154,-0.93691 -2.37457,-0.95067 -1.23014,-0.10634 1.35654,1.00083 5.21103,2.90742 7.14482,3.53414 3.03201,0.98263 5.29167,1.35773 5.29167,0.8784 z m -26.6302,-2.44606 c 2.06063,-0.74853 5.63674,-2.60228 5.0525,-2.61907 -0.15331,-0.004 -1.51615,0.40871 -3.02854,0.91803 -1.5124,0.50932 -2.87525,0.92243 -3.02855,0.91801 -0.15331,-0.004 0.59456,-0.55958 1.66193,-1.23369 1.47409,-0.93099 1.84504,-1.27919 1.54289,-1.44828 -0.69728,-0.39021 -5.31515,1.79558 -6.94983,3.28959 -0.78569,0.71807 -1.42853,1.3984 -1.42853,1.51184 0,0.33964 3.86667,-0.49678 6.17813,-1.33643 z m -9.07885,0.66853 c 0.16038,-0.19325 0.37805,-0.6746 0.48371,-1.06966 0.15652,-0.58528 0.42815,-0.77823 1.4668,-1.04195 1.39247,-0.35356 1.73375,-0.69453 1.73991,-1.73831 0.005,-0.84494 -0.75335,-1.56765 -1.88855,-1.79982 -0.70105,-0.14338 -0.89695,-0.34121 -1.08258,-1.09328 -0.2355,-0.95414 -1.04843,-1.84426 -1.68434,-1.84426 -0.68946,0 -1.42589,1.02487 -1.42589,1.98438 0,0.85254 -0.063,0.92604 -0.79375,0.92604 -0.90999,0 -1.85209,0.80751 -1.85209,1.5875 0,0.73338 0.9253,1.5875 1.71979,1.5875 0.58978,0 0.66146,0.1092 0.66146,1.00776 0,1.05026 0.38154,1.75738 1.05834,1.96145 0.54068,0.16302 1.24508,-0.0431 1.59719,-0.46735 z m -1.797,-2.83259 c -0.58494,-0.73114 -0.60157,-1.4403 -0.0502,-2.14124 0.63066,-0.80175 1.19869,-0.88269 2.04323,-0.29116 0.72603,0.50854 0.78002,1.71362 0.10418,2.32524 -0.57134,0.51706 -1.72221,0.57586 -2.0972,0.10716 z m 41.24838,2.64583 c 0.17674,-0.32742 0.29719,-0.96849 0.26766,-1.42459 -0.0489,-0.75563 0.0302,-0.84502 0.89075,-1.00646 1.89739,-0.35596 1.75095,-2.49384 -0.20576,-3.00381 -0.57766,-0.15055 -0.86734,-0.39094 -0.88549,-0.73481 -0.0666,-1.26126 -0.14143,-1.44856 -0.73428,-1.83701 -1.10523,-0.72417 -2.54604,0.40756 -2.54604,1.99986 0,0.39945 -0.18286,0.51672 -0.80578,0.51672 -0.99028,0 -2.10464,1.03414 -2.10464,1.95314 0,0.8255 1.13578,1.75102 2.1488,1.75102 0.62053,0 0.82744,0.17455 1.1652,0.98292 0.47845,1.14508 0.78776,1.38874 1.76992,1.39428 0.47596,0.003 0.82672,-0.19679 1.03966,-0.59126 z m -2.79739,-2.73088 c -0.93516,-0.93515 -0.15212,-2.75922 1.18448,-2.75922 0.54577,0 1.57475,1.09166 1.57475,1.6707 0,1.19223 -1.90428,1.94348 -2.75923,1.08852 z m -29.28318,-2.32881 c 0.61836,-0.74509 -0.45124,-1.8147 -1.19633,-1.19633 -0.38232,0.31729 -0.48597,1.08426 -0.18695,1.38328 0.29902,0.29902 1.06598,0.19536 1.38328,-0.18695 z m 23.81249,0 c 0.61837,-0.74509 -0.45124,-1.8147 -1.19633,-1.19633 -0.38231,0.31729 -0.48597,1.08426 -0.18695,1.38328 0.29902,0.29902 1.06599,0.19536 1.38328,-0.18695 z m -6.46483,-0.0662 c 0.23638,-0.0907 0.66526,-0.62649 0.95306,-1.19063 0.49067,-0.96179 0.59748,-1.0257 1.7142,-1.0257 1.01355,0 1.2358,-0.0985 1.4923,-0.66145 0.43129,-0.94659 -0.0603,-1.85886 -1.22958,-2.28167 -0.69776,-0.25231 -0.90157,-0.45109 -0.76957,-0.75056 0.36319,-0.82397 0.41332,-2.1452 0.0959,-2.52767 -0.62873,-0.75757 -1.75675,-0.47707 -2.67463,0.6651 -0.78063,0.9714 -0.95553,1.05834 -2.12913,1.05834 -1.41099,0 -2.33697,0.63378 -2.33697,1.59952 0,0.75434 1.16378,1.84006 1.97235,1.84006 0.60543,0 0.67348,0.10334 0.67348,1.02265 0,0.63396 0.20843,1.28763 0.54837,1.71979 0.55876,0.71035 0.92527,0.82576 1.69022,0.53222 z m -1.53612,-3.49393 c -1.29286,-1.4286 0.51779,-3.34013 2.03409,-2.14741 0.80175,0.63066 0.88269,1.19868 0.29115,2.04323 -0.50853,0.72602 -1.71361,0.78002 -2.32524,0.10418 z m -8.88709,2.97636 c 0.19076,-0.22985 0.3688,-0.91446 0.39565,-1.52135 0.0412,-0.93162 0.16735,-1.16042 0.81004,-1.46931 1.20581,-0.57954 1.68727,-1.11688 1.68727,-1.8831 0,-1.12097 -0.7999,-1.65455 -2.31905,-1.54693 -1.20458,0.0853 -1.36006,0.0226 -2.2311,-0.90046 -1.13451,-1.20224 -2.10502,-1.31543 -2.75629,-0.32147 -0.40046,0.61119 -0.40346,0.76239 -0.0338,1.70355 l 0.40571,1.03283 -0.74649,0.26023 c -0.41057,0.14313 -0.95207,0.57397 -1.20332,0.95743 -0.43753,0.66775 -0.43417,0.72728 0.0796,1.40966 0.43275,0.5748 0.75053,0.71246 1.64468,0.71246 0.83699,0 1.17802,0.12954 1.3931,0.52916 0.78448,1.45765 2.12393,1.94109 2.874,1.0373 z m -2.83335,-3.17447 c -0.58173,-0.88784 -0.22771,-1.99005 0.74958,-2.33375 0.98974,-0.34807 2.06631,0.37785 2.06631,1.39331 0,1.56257 -1.97587,2.22247 -2.81589,0.94044 z m -5.90808,0.23108 c 1.41669,-0.97641 1.7421,-2.07783 0.69176,-2.34145 -0.93822,-0.23548 -2.45391,0.51397 -2.93982,1.45362 -0.40985,0.79255 -0.40387,0.82766 0.18086,1.06241 0.90111,0.36175 1.34321,0.32442 2.0672,-0.17458 z m 28.40035,-0.0697 c 0.70757,-0.70757 -1.90873,-2.59023 -3.16235,-2.2756 -1.06036,0.26614 -0.69757,1.65739 0.62439,2.3944 0.73171,0.40794 2.07405,0.34511 2.53796,-0.1188 z m -39.17094,-0.90948 c -0.55585,-0.641 -1.04919,-1.12831 -1.0963,-1.08292 -0.17818,0.17166 0.76693,1.70444 1.21013,1.96258 0.91445,0.53262 0.88,0.26638 -0.11383,-0.87966 z m 47.72845,0.57013 c 0.50903,-0.55616 1.05143,-1.78594 0.78769,-1.78594 -0.065,0 -0.55728,0.53578 -1.09388,1.19063 -1.00037,1.22082 -0.73629,1.73428 0.30619,0.59531 z m -37.74162,-5.37049 c 0.71248,-0.52301 1.41151,-0.87917 1.5534,-0.79148 0.14189,0.0877 0.99364,-0.43337 1.89279,-1.15791 1.79401,-1.44563 4.74262,-3.00257 7.07507,-3.73582 1.89582,-0.59598 0.85965,-0.67092 -1.5427,-0.11157 -2.36483,0.55062 -4.96562,1.56735 -6.50261,2.54208 -1.80709,1.14602 -4.68683,4.10063 -5.37656,5.51633 l -0.58006,1.19063 1.09262,-1.25067 c 0.60095,-0.68786 1.67557,-1.67858 2.38805,-2.20159 z m 15.32856,1.0332 c 0,-0.65313 -0.69892,-2.05944 -1.28143,-2.57839 -0.81144,-0.7229 -1.3644,-0.17739 -1.3644,1.34603 0,0.96734 0.14826,1.32684 0.82716,2.00574 l 0.82715,0.82716 0.49576,-0.61224 c 0.27267,-0.33673 0.49576,-0.78147 0.49576,-0.9883 z"
       id="path1" /></g></svg>
